<?xml version="1.0" encoding="UTF-8" standalone="no"?>
<!-- Created with Inkscape (http://www.inkscape.org/) -->

<svg
   width="127mm"
   height="289.47699mm"
   viewBox="0 0 127 289.47699"
   version="1.1"
   id="svg5"
   inkscape:version="1.2.1 (9c6d41e410, 2022-07-14)"
   sodipodi:docname="lulu.svg"
   inkscape:export-filename="..\png\lulu.png"
   inkscape:export-xdpi="96"
   inkscape:export-ydpi="96"
   xmlns:inkscape="http://www.inkscape.org/namespaces/inkscape"
   xmlns:sodipodi="http://sodipodi.sourceforge.net/DTD/sodipodi-0.dtd"
   xmlns="http://www.w3.org/2000/svg"
   xmlns:svg="http://www.w3.org/2000/svg">
  <sodipodi:namedview
     id="namedview7"
     pagecolor="#505050"
     bordercolor="#eeeeee"
     borderopacity="1"
     inkscape:showpageshadow="0"
     inkscape:pageopacity="0"
     inkscape:pagecheckerboard="0"
     inkscape:deskcolor="#505050"
     inkscape:document-units="mm"
     showgrid="false"
     inkscape:zoom="0.30009657"
     inkscape:cx="-89.971038"
     inkscape:cy="981.35077"
     inkscape:window-width="1620"
     inkscape:window-height="1010"
     inkscape:window-x="-6"
     inkscape:window-y="-6"
     inkscape:window-maximized="1"
     inkscape:current-layer="layer1" />
  <defs
     id="defs2" />
  <g
     inkscape:label="Layer 1"
     inkscape:groupmode="layer"
     id="layer1">
    <ellipse
       style="fill:#e6e6e6;stroke:#000000;stroke-width:5;stroke-dasharray:none;stroke-opacity:1"
       id="ellipse113"
       ry="69.216103"
       rx="59.777546"
       cy="74.001213"
       cx="-63.681"
       transform="scale(-1,1)" />
    <path
       style="fill:#000000;stroke-width:0.264583"
       id="path167"
       sodipodi:type="arc"
       sodipodi:cx="-88.22126"
       sodipodi:cy="54.494865"
       sodipodi:rx="10.067796"
       sodipodi:ry="10.697034"
       sodipodi:start="0"
       sodipodi:end="6.0257114"
       sodipodi:arc-type="slice"
       d="m -78.153464,54.494865 a 10.067796,10.697034 0 0 1 -9.420195,10.674881 10.067796,10.697034 0 0 1 -10.632084,-9.301578 10.067796,10.697034 0 0 1 8.052397,-11.871511 10.067796,10.697034 0 0 1 11.66801,7.774331 l -9.735924,2.723877 z"
       transform="scale(-1,1)" />
    <path
       style="fill:#000000;stroke-width:0.264583"
       id="path167-8"
       sodipodi:type="arc"
       sodipodi:cx="-54.242447"
       sodipodi:cy="52.60714"
       sodipodi:rx="10.067796"
       sodipodi:ry="10.697034"
       sodipodi:start="0"
       sodipodi:end="6.0257114"
       sodipodi:arc-type="slice"
       d="m -44.174651,52.60714 a 10.067796,10.697034 0 0 1 -9.420195,10.674881 10.067796,10.697034 0 0 1 -10.632084,-9.301579 10.067796,10.697034 0 0 1 8.052397,-11.871511 10.067796,10.697034 0 0 1 11.66801,7.774331 l -9.735924,2.723878 z"
       transform="scale(-1,1)" />
    <path
       style="fill:#4d4d4d;stroke:#000000;stroke-width:4.55019;stroke-dasharray:none;stroke-opacity:1"
       d="m 61.775798,140.71045 c 3.213978,32.84378 2.551062,65.78697 2.551062,98.71593"
       id="path1161" />
    <path
       style="fill:none;stroke:#000000;stroke-width:5;stroke-dasharray:none;stroke-opacity:1"
       d="m 103.32472,188.25033 c -8.376153,1.35968 -14.996592,5.9356 -22.653558,9.57746 -1.54707,0.73583 -3.59493,0.28449 -5.03412,1.19719 -3.56393,2.26013 0.99575,1.67956 -5.03412,3.59154 -1.76543,0.55979 -6.06011,5.14267 -6.29265,4.78874 -9.02427,-13.73501 -5.50777,-15.51535 -18.87796,-29.92959 C 43.771592,175.68526 24.0373,160.10928 24.0373,158.32074"
       id="path1163" />
    <path
       style="fill:none;stroke:#000000;stroke-width:5;stroke-dasharray:none;stroke-opacity:1"
       d="m 94.64166,280.51909 c -1.499108,-1.38255 -3.414358,-7.37031 -6.292373,-8.80933 -0.375206,-0.18759 -0.961851,0.29663 -1.258475,0 -1.930755,-1.93075 -3.049693,-5.56664 -5.033899,-7.55084 -0.296625,-0.29663 -0.883269,0.1876 -1.258475,0 -3.396284,-1.69815 0.04344,-0.56408 -1.258475,-2.51695 -0.658151,-0.98723 -1.906497,-1.49954 -2.516946,-2.51695 -0.682506,-1.13751 -0.665226,-2.58893 -1.258475,-3.77543 -0.67641,-1.35282 -1.955223,-2.3711 -2.51695,-3.77542 -0.311591,-0.77898 0.265309,-1.72102 0,-2.51695 -0.375205,-1.12561 -2.141743,-1.39134 -2.516949,-2.51695 -0.397965,-1.19389 0.562806,-2.64981 0,-3.77542 -0.76881,-1.53762 -6.075225,-5.77171 -7.550849,-5.0339 -2.626468,1.31323 -2.570165,7.65728 -3.775421,10.06779 -0.67641,1.35282 -1.955223,2.37111 -2.51695,3.77543 -1.104212,2.76053 -0.798369,7.48992 -2.516949,10.0678 -1.451885,2.17782 -3.8593,3.94317 -5.033899,6.29237 -0.187603,0.3752 0.296624,0.96185 0,1.25847 -0.663273,0.66328 -1.853673,0.5952 -2.516949,1.25848 -1.32655,1.32655 -1.1904,3.70735 -2.51695,5.03389 -3.056586,3.0566 -1.847972,-0.37423 -3.775421,2.51696 -0.520317,0.78046 -0.595202,1.85367 -1.258475,2.51695 -0.593252,0.59325 -1.923701,-0.59325 -2.51695,0 -1.352753,1.35274 -3.775424,5.75911 -3.775424,7.55084"
       id="path2626" />
    <ellipse
       style="fill:#4d4d4d;stroke:#000000;stroke-width:0.264583;stroke-opacity:1"
       id="path2680"
       ry="16.989407"
       rx="17.618643"
       cy="99.79995"
       cx="-68.085663"
       transform="scale(-1,1)" />
  </g>
</svg>
